<?xml version="1.0" encoding="UTF-8"?><svg id="_圖層_2" xmlns="http://www.w3.org/2000/svg" viewBox="0 0 3778.22 567.44"><defs><style>.cls-1{fill:#231815;}</style></defs><g id="_圖層_1-2"><path class="cls-1" d="m984.36,383.47c-43.01,106.32-86.01,180.39-170.83,180.39-50.17,0-127.82-20.31-127.82-93.18,0-28.67,11.95-59.73,26.28-99.15l70.48-186.36c10.75-28.67,22.7-66.9,22.7-89.6,0-50.17-31.06-57.34-62.12-57.34-64.51,0-113.49,57.34-151.72,113.49l-129.02,399h-109.9l126.63-382.28c7.17-20.31,15.53-50.17,15.53-72.87,0-50.17-32.25-57.34-63.31-57.34-64.51,0-134.99,80.04-168.44,148.13l-119.46,364.36H34.64L163.66,168.44c9.56-28.67,22.7-82.43,22.7-96.76,0-34.64-10.75-43.01-33.45-43.01-56.15,0-89.6,59.73-129.02,161.27L0,181.58C43.01,76.46,84.82,0,169.63,0c51.37,0,109.9,17.92,109.9,108.71l4.78,1.19C328.52,48.98,385.86,0,453.95,0c86.01,0,131.41,57.34,134.99,109.9h4.78C634.34,56.15,691.68,0,760.97,0c80.04,0,140.96,62.12,140.96,133.8,0,16.72-11.95,59.73-22.7,88.4l-66.9,175.61c-15.53,40.62-26.28,75.26-26.28,93.18,0,38.23,21.5,43.01,44.2,43.01,56.15,0,91.98-56.15,131.41-157.69l22.7,7.17Z"/><path class="cls-1" d="m1542.23,210.25c0,127.82-109.9,357.19-334.49,357.19-81.23,0-176.8-59.73-176.8-209.06,0-127.82,112.29-358.38,334.49-358.38,81.23,0,176.8,60.92,176.8,210.25Zm-112.29-26.28c0-109.9-39.42-163.66-82.43-163.66-125.43,0-204.28,219.81-204.28,360.77,0,109.9,35.84,163.66,82.43,163.66,133.8,0,204.28-218.61,204.28-360.77Z"/><path class="cls-1" d="m2106.07,72.87c0,37.03-20.31,75.26-62.12,75.26s-58.54-22.7-58.54-50.17,27.48-40.62,27.48-51.37,1.19-15.53-17.92-15.53c-41.81,0-96.76,90.79-131.41,154.1l-111.1,365.55h-107.51l119.46-382.28c8.36-25.09,22.7-82.43,22.7-96.76,0-34.64-10.75-43.01-33.45-43.01-56.15,0-90.79,63.31-129.02,161.27l-23.89-8.36C1643.76,76.46,1685.57,0,1770.39,0c51.37,0,101.54,33.45,101.54,120.66l4.78,1.19C1916.13,60.92,1951.97,0,2028.42,0c50.17,0,77.65,35.84,77.65,72.87Z"/><path class="cls-1" d="m2536.13,80.04c0,129.02-195.92,197.11-312.99,215.03-8.36,39.42-17.92,78.84-17.92,112.29,0,81.23,26.28,120.66,88.4,120.66,87.21,0,144.55-69.29,193.53-160.08l21.5,10.75c-74.07,140.96-155.3,188.75-232.95,188.75-84.82,0-182.78-39.42-182.78-191.14,0-123.04,118.27-376.3,341.66-376.3,53.76,0,101.54,26.28,101.54,80.04Zm-82.43,7.17c0-38.23-14.33-63.31-52.56-63.31-69.29,0-139.77,126.63-172.02,246.09,168.44-29.87,224.59-127.82,224.59-182.78Z"/><path class="cls-1" d="m3754.09,251.16c-40.51-12.36-76.53-31.35-107.05-56.44-24.46-20.1-45.57-44.23-62.75-71.7-29.75-47.56-37.55-89.27-37.63-89.69l.02.1-59.11,10.29c.36,2.08,9.27,51.64,44.35,108.7,20.57,33.46,46.01,62.89,75.61,87.49,6.47,5.38,13.15,10.52,20.01,15.43l-900.49,14.75v40.68l899.56,2.1c-6.54,4.71-12.9,9.62-19.08,14.76-29.61,24.6-55.05,54.03-75.61,87.49-35.08,57.06-43.99,106.62-44.35,108.7l59.11,10.29c.07-.4,7.7-40.95,36.35-87.56,17.13-27.87,38.28-52.35,62.84-72.76,30.78-25.57,67.19-44.88,108.22-57.41,14.43-4.4,24.13-17.51,24.14-32.6,0-15.1-9.7-28.2-24.14-32.61Z"/></g></svg>