<?xml version="1.0" encoding="UTF-8"?><svg id="_圖層_2" xmlns="http://www.w3.org/2000/svg" viewBox="0 0 3799.14 585.44"><defs><style>.cls-1{fill:#fff;}.cls-2{fill:#231815;}</style></defs><g id="_圖層_1-2"><path class="cls-1" d="m825.45,577.36c-14.74,0-52.51-1.93-84.9-19.82-31.02-17.13-47.42-44.06-47.42-77.86,0-27.85,10.66-57.1,24.16-94.12l2.39-6.57,70.5-186.41c6.73-17.96,22.41-62.5,22.41-88,0-46.44-27.69-52.84-57.62-52.84-63.66,0-112.31,59.19-147.63,110.99l-129.83,401.5h-119.41l128.59-388.19c4.62-13.09,15.3-46.09,15.3-71.46,0-21.25-5.9-35.57-18.03-43.76-12.06-8.14-29.06-9.08-40.79-9.08-19.73,0-51.84,8.2-92.76,47.29-27.87,26.61-53.91,62.33-71.5,98.05l-120.38,367.15H40.29L171.32,176c9.39-28.17,22.46-81.46,22.46-95.32,0-32.74-9.33-38.51-28.95-38.51-25.39,0-46.73,12.94-67.16,40.72-17.8,24.21-35.04,59.4-57.67,117.68l-1.57,4.06-32.47-11.37,1.79-4.39c19.58-47.87,41.6-96.91,69.82-131.36C106.81,21.84,140.82,4.5,181.55,4.5c32.32,0,58.2,7.14,76.92,21.21,23.7,17.82,36.27,46.76,37.4,86.08,23.48-31.59,48.24-56.59,73.64-74.38,31.2-21.84,63.62-32.92,96.36-32.92,40.67,0,75.75,12.6,101.47,36.44,20.66,19.15,34.09,45,37.44,71.68,23.5-30.58,47.4-54.94,71.06-72.44,32.02-23.67,64.67-35.67,97.05-35.67,80.21,0,145.46,62.04,145.46,138.3,0,17.16-11.88,60.38-22.98,89.98l-66.91,175.63c-17.24,45.1-25.99,75.91-25.99,91.58,0,32.06,15.19,38.51,39.7,38.51,25.86,0,47.6-12.4,68.43-39.04,18.99-24.29,37.12-59.99,58.78-115.78l1.53-3.93,31.36,9.9-1.83,4.51c-18.29,45.21-40.96,96.17-70.46,131.27-29.36,34.94-63.56,51.93-104.54,51.93Z"/><path class="cls-2" d="m772.88,9c80.04,0,140.96,62.12,140.96,133.8,0,16.72-11.95,59.73-22.7,88.4l-66.9,175.61c-15.53,40.62-26.28,75.26-26.28,93.18,0,38.23,21.5,43.01,44.2,43.01,56.15,0,91.98-56.15,131.41-157.69l22.7,7.17c-43.01,106.32-86.01,180.39-170.83,180.39-50.17,0-127.82-20.31-127.82-93.18,0-28.67,11.95-59.73,26.28-99.15l70.48-186.36c10.75-28.67,22.7-66.9,22.7-89.6,0-50.17-31.06-57.34-62.12-57.34-64.51,0-113.49,57.34-151.72,113.49l-129.02,399h-109.9l126.63-382.28c7.17-20.31,15.53-50.17,15.53-72.87,0-50.17-32.25-57.34-63.31-57.34-64.51,0-134.99,80.04-168.44,148.13l-119.46,364.36H46.56L175.58,177.44c9.56-28.67,22.7-82.43,22.7-96.76,0-34.64-10.75-43.01-33.45-43.01-56.15,0-89.6,59.73-129.02,161.27l-23.89-8.36C54.92,85.46,96.74,9,181.55,9c51.37,0,109.9,17.92,109.9,108.71l4.78,1.19c44.2-60.92,101.54-109.9,169.63-109.9,86.01,0,131.41,57.34,134.99,109.9h4.78c40.62-53.76,97.96-109.9,167.25-109.9m0-9c-33.36,0-66.92,12.3-99.72,36.56-21.89,16.18-43.93,38.11-65.66,65.29C596.01,48.91,546.76,0,465.87,0c-33.67,0-66.96,11.35-98.94,33.73-23.15,16.2-45.73,38.27-67.3,65.73-3.26-34.61-16.15-60.58-38.46-77.35C241.66,7.44,214.87,0,181.55,0c-21.9,0-42.25,4.93-60.48,14.65-16.96,9.05-32.33,22.14-46.98,40.02C45.49,89.57,23.3,138.98,3.59,187.17l-3.59,8.77,8.95,3.13,23.89,8.36,8.21,2.87,3.15-8.11c22.47-57.89,39.55-92.77,57.1-116.64,19.5-26.53,39.69-38.89,63.53-38.89,15.16,0,24.45,1.64,24.45,34.01,0,12.21-12.26,63.99-22.24,93.92L38.03,556.84l-4.01,11.88h127.77l2.03-6.2,119.26-363.75c17.36-35.16,43.01-70.31,70.43-96.5,39.85-38.05,70.75-46.04,89.65-46.04,32.6,0,54.31,8.22,54.31,48.34,0,24.67-10.5,57.08-15.02,69.88l-.03.08-.03.08-126.63,382.28-3.92,11.83h128.92l2.01-6.23,128.62-397.77c14.75-21.6,37.16-52.38,63.67-74.95,26.52-22.57,52.65-33.54,79.88-33.54,17.75,0,29.34,2.55,37.58,8.26,10.45,7.24,15.54,20.35,15.54,40.09,0,17.44-8.06,48.94-22.12,86.44l-70.47,186.34-.02.05-.02.05c-.81,2.21-1.6,4.4-2.39,6.57-13.65,37.44-24.43,67.02-24.43,95.66,0,35.54,17.2,63.82,49.75,81.79,33.31,18.4,71.99,20.39,87.08,20.39,42.39,0,77.71-17.51,107.98-53.53,29.9-35.58,52.77-86.94,71.19-132.48l3.65-9.03-9.28-2.93-22.7-7.17-8.05-2.54-3.05,7.87c-21.49,55.36-39.42,90.71-58.13,114.64-19.91,25.45-40.53,37.31-64.89,37.31-15.8,0-21.83-2.91-25.32-5.45-6.65-4.84-9.88-14.18-9.88-28.56,0-10.39,4.46-34.44,25.69-89.97l66.9-175.62c11.21-29.89,23.29-73.38,23.29-91.6s-3.88-37.28-11.53-54.75c-7.45-17.01-18.1-32.31-31.67-45.48C851.37,15.11,813.45,0,772.88,0h0Z"/><path class="cls-1" d="m1219.66,580.94c-45.46,0-89.94-18.16-122.02-49.83-38.78-38.27-59.28-94.89-59.28-163.73s33.3-161.91,84.84-229.84c30.45-40.14,66.09-71.91,105.94-94.43,45.32-25.62,95.19-38.6,148.22-38.6,45.36,0,89.84,18.38,122.04,50.44,38.77,38.6,59.26,95.42,59.26,164.31,0,33.62-7.24,72.08-20.93,111.22-14.83,42.38-36.61,83.19-63,118.02-30.3,39.99-65.91,71.63-105.84,94.03-45.43,25.49-95.63,38.41-149.21,38.41ZM1359.43,33.81c-28.52,0-56.05,11.9-81.81,35.37-23.43,21.35-44.74,51.51-63.33,89.62-33.71,69.12-54.65,157.74-54.65,231.28,0,98.17,29.86,159.16,77.93,159.16,30.48,0,59.2-11.85,85.37-35.24,23.66-21.14,44.82-51.18,62.88-89.27,31.79-67.03,51.53-155.83,51.53-231.77,0-109.95-39.14-159.16-77.93-159.16Z"/><path class="cls-2" d="m1377.35,9c81.23,0,176.8,60.92,176.8,210.25,0,127.82-109.9,357.19-334.49,357.19-81.23,0-176.8-59.73-176.8-209.06,0-127.82,112.29-358.38,334.49-358.38m-139.77,544.74c133.8,0,204.28-218.61,204.28-360.77,0-109.9-39.42-163.66-82.43-163.66-125.43,0-204.28,219.81-204.28,360.77,0,109.9,35.84,163.66,82.43,163.66M1377.35,0c-53.82,0-104.43,13.18-150.43,39.19-40.38,22.82-76.48,55-107.31,95.63-26.85,35.39-49.06,76.77-64.22,119.64-14.09,39.84-21.53,78.89-21.53,112.92,0,36.63,5.65,69.9,16.8,98.89,10.2,26.52,24.94,49.41,43.82,68.04,17.19,16.97,37.39,30.04,60.03,38.85,20.64,8.03,43.17,12.28,65.16,12.28,54.36,0,105.31-13.12,151.42-38.99,40.47-22.71,76.55-54.75,107.22-95.24,26.67-35.2,48.68-76.44,63.67-119.25,13.86-39.61,21.19-78.59,21.19-112.71,0-36.63-5.65-69.96-16.8-99.07-10.2-26.63-24.93-49.66-43.79-68.43-17.21-17.13-37.4-30.34-60.01-39.27-20.69-8.17-43.23-12.48-65.2-12.48h0Zm-139.77,544.74c-20.44,0-38-12.42-50.78-35.92-14.82-27.24-22.65-68.3-22.65-118.74,0-34.72,4.86-74.08,14.05-113.81,9.55-41.28,23.43-81.22,40.14-115.49,18.34-37.6,39.3-67.3,62.31-88.27,24.9-22.69,51.41-34.2,78.77-34.2,18.9,0,36.47,12.79,49.49,36.02,15.66,27.94,23.94,68.97,23.94,118.64,0,75.31-19.58,163.38-51.1,229.84-17.81,37.55-38.6,67.1-61.81,87.84-25.32,22.62-53.03,34.09-82.37,34.09h0Z"/><path class="cls-1" d="m1650.75,564.22l121.29-388.12c8.9-26.69,22.49-82.47,22.49-95.42,0-32.74-9.33-38.51-28.95-38.51-25.21,0-46.68,13.36-67.59,42.05-17.85,24.49-34.96,59.29-57.23,116.36l-1.58,4.05-32.46-11.36,1.79-4.39c19.58-47.87,41.6-96.91,69.82-131.36,29.23-35.67,63.24-53.02,103.98-53.02,50.04,0,103.42,31.32,105.95,118.63.55-.85,1.1-1.71,1.65-2.56,19.25-29.87,37.43-58.08,60.67-79.68,26.33-24.48,55.69-36.38,89.76-36.38,53.93,0,82.15,38.92,82.15,77.37,0,20.51-5.77,39.74-16.24,54.16-12.16,16.75-29.58,25.6-50.38,25.6-39.47,0-63.04-20.44-63.04-54.67,0-19.55,11.45-31.84,19.8-40.82,3.77-4.05,7.67-8.24,7.67-10.55,0-.63,0-1.23,0-1.82.02-3.38.04-6.3-.87-7.22-.9-.91-3.81-1.99-12.56-1.99-16.98,0-38.79,17.34-64.81,51.53-18.64,24.49-39.06,57.15-62.43,99.82l-111.93,368.3h-116.97Z"/><path class="cls-2" d="m2040.34,9c50.17,0,77.65,35.84,77.65,72.87s-20.31,75.26-62.12,75.26-58.54-22.7-58.54-50.17,27.48-40.62,27.48-51.37,1.19-15.53-17.92-15.53c-41.81,0-96.76,90.79-131.41,154.1l-111.1,365.55h-107.51l119.46-382.28c8.36-25.09,22.7-82.43,22.7-96.76,0-34.64-10.75-43.01-33.45-43.01-56.15,0-90.79,63.31-129.02,161.27l-23.89-8.36c43.01-105.13,84.82-181.58,169.63-181.58,51.37,0,101.54,33.45,101.54,120.66l4.78,1.19c39.42-60.93,75.26-121.85,151.72-121.85m0-9c-35.26,0-65.63,12.29-92.83,37.59-21.3,19.8-38.28,44.84-55.62,71.61-1.34-13.88-4.09-26.67-8.21-38.21-5.72-16-14.11-29.68-24.93-40.67-19.24-19.55-46.39-30.31-76.45-30.31-21.9,0-42.25,4.93-60.48,14.65-16.96,9.05-32.33,22.14-46.98,40.02-28.6,34.91-50.79,84.31-70.51,132.51l-3.59,8.77,8.95,3.13,23.89,8.36,8.2,2.87,3.16-8.09c22.12-56.69,39.07-91.18,56.68-115.34,19.99-27.43,40.31-40.2,63.95-40.2,15.16,0,24.45,1.64,24.45,34.01,0,12.35-13.66,68.18-22.24,93.92l-.03.08-.03.08-119.46,382.28-3.65,11.68h126.43l1.94-6.38,110.83-364.66c23.17-42.28,43.4-74.62,61.84-98.85,31.3-41.13,50.57-49.76,61.23-49.76,5.14,0,7.69.4,8.87.69.07,1.09.06,2.71.05,3.99,0,.49,0,.99,0,1.5-.64,1.58-3.99,5.18-6.47,7.83-8.37,8.98-21.01,22.56-21.01,43.88,0,17.04,5.65,31.51,16.33,41.86,11.87,11.49,29.1,17.32,51.21,17.32s40.98-9.49,54.02-27.45c11.03-15.18,17.1-35.36,17.1-56.81s-8-41.55-22.54-56.58c-16-16.55-38.17-25.29-64.11-25.29h0Z"/><path class="cls-1" d="m2287.63,580.94c-35.45,0-86.1-6.89-126.05-39.7-40.63-33.37-61.23-85.83-61.23-155.94,0-58.04,27.19-153.81,87.92-236.95,31.51-43.13,67.94-77.35,108.28-101.71,46.31-27.96,96.76-42.14,149.95-42.14,28.68,0,54.8,7.35,73.54,20.69,21.26,15.14,32.5,37.22,32.5,63.84,0,31.36-11.25,61.09-33.45,88.35-19.2,23.59-46.61,45.37-81.45,64.76-54.28,30.2-128.38,54.73-198.83,65.89-.85,3.97-1.7,7.94-2.56,11.9-7.52,34.81-14.62,67.68-14.62,96.43,0,80.33,25.88,116.16,83.9,116.16,39.73,0,75.08-14.66,108.06-44.81,27.73-25.35,53.63-61.23,81.5-112.9l2.07-3.84,29.51,14.76-2.14,4.06c-35.24,67.08-74.41,117.12-116.41,148.74-37.39,28.15-77.94,42.42-120.52,42.42Zm125.43-543.55c-65.04,0-133.19,120.24-165.77,235.86,156.73-30.16,213.84-121.91,213.84-177.04,0-39.58-15.72-58.81-48.06-58.81Z"/><path class="cls-2" d="m2446.51,9c53.76,0,101.54,26.28,101.54,80.04,0,129.02-195.92,197.11-312.99,215.03-8.36,39.42-17.92,78.84-17.92,112.29,0,81.23,26.28,120.66,88.4,120.66,87.21,0,144.55-69.29,193.53-160.08l21.5,10.75c-74.07,140.96-155.3,188.75-232.95,188.75-84.82,0-182.78-39.42-182.78-191.14,0-123.04,118.27-376.3,341.66-376.3m-205.47,269.98c168.44-29.86,224.59-127.82,224.59-182.78,0-38.23-14.33-63.31-52.56-63.31-69.29,0-139.77,126.63-172.02,246.09M2446.51,0c-54.03,0-105.26,14.4-152.28,42.79-40.85,24.67-77.72,59.29-109.59,102.91-27.49,37.63-50.42,81.16-66.3,125.88-14.5,40.83-22.49,81.22-22.49,113.72,0,71.52,21.15,125.16,62.87,159.42,40.98,33.66,92.72,40.72,128.91,40.72,43.59,0,85.05-14.58,123.23-43.32,20.76-15.63,40.96-35.77,60.05-59.88,20.03-25.3,39.42-55.7,57.64-90.36l4.27-8.13-8.21-4.11-21.5-10.75-7.8-3.9-4.14,7.68c-27.63,51.22-53.23,86.71-80.58,111.72-32.11,29.36-66.47,43.63-105.03,43.63-27.91,0-47.59-8.54-60.18-26.11-12.93-18.05-19.22-46.04-19.22-85.55,0-28.27,7.05-60.91,14.51-95.48.64-2.96,1.28-5.93,1.92-8.9,30.46-4.99,62.63-12.68,93.47-22.35,38.74-12.15,73.66-26.8,103.79-43.56,35.35-19.67,63.19-41.82,82.75-65.85,22.87-28.09,34.46-58.77,34.46-91.19,0-28.15-11.89-51.49-34.39-67.51-19.5-13.88-46.54-21.53-76.15-21.53h0Zm-192.85,267.38c16.51-56.19,40.6-110.69,67.05-151.34,15.31-23.53,30.94-41.87,46.47-54.53,15.98-13.02,31.42-19.63,45.89-19.63,15.5,0,26.44,4.5,33.44,13.75,6.72,8.88,10.12,22.52,10.12,40.56,0,13.41-3.67,28.56-10.6,43.82-8.13,17.9-20.21,34.93-35.89,50.61-18.18,18.18-40.69,33.94-66.91,46.84-26.34,12.96-56.41,23-89.56,29.91h0Z"/><path class="cls-1" d="m3557.82,547.54l-63.54-11.06.77-4.43c.37-2.12,9.43-52.51,44.95-110.28,20.83-33.88,46.59-63.69,76.57-88.6,2.77-2.3,5.61-4.58,8.49-6.83l-890.59-2.08v-49.6l891.7-14.6c-3.26-2.52-6.46-5.08-9.59-7.69-29.98-24.91-55.75-54.72-76.57-88.6-35.52-57.78-44.58-108.17-44.95-110.28l-.77-4.43,63.54-11.06.75,4.31,4.43-.78c.07.4,7.89,41.54,37.01,88.1,16.92,27.06,37.72,50.82,61.8,70.61,30.06,24.71,65.56,43.42,105.5,55.61,16.34,4.99,27.32,19.83,27.32,36.92,0,17.09-10.98,31.92-27.32,36.91-40.46,12.35-76.34,31.38-106.65,56.56-24.19,20.1-45.01,44.21-61.88,71.66-28.14,45.78-35.69,85.61-35.76,86l-.81,4.38-4.39-.75Z"/><path class="cls-2" d="m3558.58,42.33c.08.42,7.88,42.13,37.63,89.69,17.18,27.48,38.3,51.6,62.75,71.7,30.52,25.09,66.54,44.08,107.05,56.44,14.44,4.41,24.14,17.51,24.14,32.61,0,15.1-9.7,28.2-24.14,32.6-41.03,12.52-77.44,31.84-108.22,57.41-24.56,20.41-45.71,44.89-62.84,72.76-28.65,46.61-36.28,87.17-36.35,87.56l-59.11-10.29c.36-2.08,9.27-51.64,44.35-108.7,20.57-33.46,46.01-62.89,75.61-87.49,6.18-5.13,12.55-10.05,19.08-14.76l-899.56-2.1v-40.68l900.49-14.75c-6.87-4.91-13.54-10.05-20.01-15.43-29.61-24.6-55.05-54.03-75.61-87.49-35.08-57.06-43.99-106.62-44.35-108.7l59.11-10.29-.02-.1m-1.53-8.76l-59.11,10.29-8.87,1.54,1.54,8.87c.37,2.15,9.59,53.37,45.55,111.87,21.06,34.26,47.12,64.42,77.45,89.63l-874.79,14.33-8.85.14v58.52l8.98.02,873.43,2.04c-29.8,25-55.43,54.8-76.21,88.6-35.96,58.5-45.18,109.72-45.55,111.87l-1.54,8.87,8.87,1.54,59.11,10.29,8.86,1.54,1.54-8.81c.21-1.1,7.86-40.03,35.16-84.45,16.62-27.03,37.12-50.77,60.93-70.55,29.85-24.8,65.21-43.55,105.09-55.72,18.25-5.57,30.51-22.13,30.51-41.21,0-19.08-12.26-35.65-30.51-41.22-39.38-12.02-74.36-30.45-103.96-54.78-23.7-19.48-44.17-42.88-60.84-69.52-28.56-45.67-36.33-86.14-36.4-86.54l-8.86,1.58-1.52-8.72h0Z"/></g></svg>