<?xml version="1.0" encoding="UTF-8"?><svg id="_圖層_2" xmlns="http://www.w3.org/2000/svg" viewBox="0 0 43.99 46.97"><defs><style>.cls-1,.cls-2,.cls-3{fill:#595757;}.cls-2{font-family:'LINESeedJP_OTF-Thin-83pv-RKSJ-H', 'LINE Seed JP_OTF';font-size:12.68px;font-weight:200;}.cls-3{font-family:'LINESeedJP_OTF-Bold-83pv-RKSJ-H', 'LINE Seed JP_OTF';font-size:23.55px;font-weight:700;}.cls-4{letter-spacing:0em;}</style></defs><g id="_圖層_1-2"><path class="cls-1" d="m2.33,26.17c-1.1,0-1.99-.89-1.99-1.99v-13.81c0-1.07,3.3-3.92,3.3-2.77v5.83c0,.69.46.63.78.38.95-.75,2.16-1.11,3.39-1.11,3.06,0,4.83,1.84,4.83,4.88v8.27c0,.21-.14.33-.33.33h-1.92c-.59,0-1.08-.48-1.08-1.08v-6.18c0-2.19-.8-3.2-2.52-3.2-1.63,0-3.16,1.2-3.16,3.72v5.43c0,.72-.59,1.31-1.31,1.31h0Z"/><text class="cls-3" transform="translate(14.75 20.72)"><tspan x="0" y="0">_</tspan><tspan class="cls-4" x="14.43" y="4.46">7</tspan></text><text class="cls-2" transform="translate(0 41.63)"><tspan x="0" y="0">stud</tspan><tspan x="26.61" y="-1.55">_</tspan><tspan x="34.13" y="0">o</tspan></text></g></svg>