<?xml version="1.0" standalone="no"?>
<!DOCTYPE svg PUBLIC "-//W3C//DTD SVG 20010904//EN"
 "http://www.w3.org/TR/2001/REC-SVG-20010904/DTD/svg10.dtd">
<svg version="1.0" xmlns="http://www.w3.org/2000/svg"
 width="1920.000000pt" height="1920.000000pt" viewBox="0 0 1920.000000 1920.000000"
 preserveAspectRatio="xMidYMid meet">
<metadata>
Created by potrace 1.14, written by Peter Selinger 2001-2017
</metadata>
<g transform="translate(0.000000,1920.000000) scale(0.100000,-0.100000)"
fill="#000000" stroke="none">
<path d="M3999 14206 c-251 -103 -676 -508 -801 -763 l-33 -68 0 -2180 0
-2180 29 -75 c52 -136 122 -226 231 -299 287 -192 616 -113 719 174 7 20 12
342 16 1000 6 932 7 974 27 1065 91 415 320 679 680 782 67 19 102 23 248 23
193 0 250 -11 375 -72 54 -26 95 -56 146 -107 83 -83 122 -148 163 -271 66
-198 64 -149 70 -1360 l6 -1100 23 -46 c52 -105 135 -168 246 -188 34 -6 184
-11 350 -11 257 0 295 2 326 18 19 9 40 28 47 42 16 32 18 2529 2 2715 -60
694 -432 1136 -1065 1264 -466 95 -970 6 -1317 -231 -145 -98 -180 -118 -215
-118 -48 0 -71 16 -93 63 -18 40 -19 81 -19 970 l0 928 -25 24 c-30 31 -63 31
-136 1z"/>
<path d="M12145 14218 c-45 -26 -44 -22 -45 -480 l0 -436 31 -26 31 -26 1280
0 c1215 0 1280 -1 1276 -17 -3 -10 -454 -1040 -1002 -2290 -564 -1287 -996
-2285 -996 -2301 0 -17 9 -37 21 -48 20 -18 44 -19 550 -19 l529 0 34 35 c29
29 212 451 1128 2600 l1093 2565 3 189 c3 204 -2 236 -44 255 -36 16 -3861 15
-3889 -1z"/>
<path d="M7884 9470 c-11 -4 -33 -22 -47 -40 l-27 -32 0 -389 c0 -419 1 -428
52 -463 20 -14 208 -16 1826 -16 l1804 0 34 34 34 34 0 395 c0 233 -4 406 -10
421 -5 14 -24 35 -42 46 -33 20 -51 20 -1818 19 -982 0 -1794 -4 -1806 -9z"/>
<path d="M10596 6794 c-3 -8 -6 -307 -6 -662 l0 -647 -27 35 c-45 60 -145 154
-207 194 -264 174 -656 192 -951 43 -193 -97 -347 -264 -435 -474 -124 -296
-121 -692 9 -992 52 -122 116 -214 214 -308 177 -170 395 -253 661 -253 291 1
567 135 713 347 l38 56 7 -168 c5 -100 12 -173 19 -181 16 -20 252 -20 268 0
8 10 10 414 9 1517 l-3 1504 -151 3 c-132 2 -152 0 -158 -14z m-491 -1259
c199 -52 344 -176 435 -370 57 -120 75 -213 73 -380 -1 -166 -20 -254 -84
-385 -34 -69 -58 -101 -128 -170 -96 -95 -182 -144 -305 -175 -97 -24 -268
-22 -369 4 -286 74 -478 318 -506 641 -22 270 43 487 194 648 143 151 312 216
535 207 52 -2 122 -11 155 -20z"/>
<path d="M5156 6474 c-14 -13 -16 -58 -16 -335 l0 -319 -188 0 c-133 0 -192
-4 -200 -12 -17 -17 -17 -249 0 -266 8 -8 67 -12 200 -12 l188 0 0 -550 c0
-566 6 -680 41 -818 41 -166 136 -300 256 -365 74 -40 191 -67 289 -67 178 0
297 49 418 173 84 85 150 190 144 228 -2 16 -26 32 -100 64 -144 64 -131 65
-173 -2 -51 -80 -72 -101 -130 -130 -40 -21 -63 -25 -125 -25 -169 1 -253 92
-280 304 -6 48 -10 312 -10 635 l0 553 295 0 c281 0 295 1 305 19 5 11 10 68
10 126 0 58 -5 115 -10 126 -10 18 -24 19 -305 19 l-295 0 0 325 c0 310 -1
325 -19 335 -11 5 -78 10 -150 10 -104 0 -133 -3 -145 -16z"/>
<path d="M3530 5853 c-282 -47 -476 -192 -541 -406 -29 -92 -23 -264 10 -349
52 -135 156 -243 311 -326 94 -50 213 -93 402 -142 307 -81 410 -161 410 -319
0 -78 -20 -127 -74 -178 -75 -72 -229 -111 -389 -99 -226 17 -373 104 -463
275 -21 40 -45 75 -53 78 -17 7 -240 -52 -260 -69 -21 -17 -16 -38 38 -147 45
-91 63 -116 143 -195 50 -50 117 -106 148 -125 142 -83 350 -127 558 -118 424
19 690 247 690 592 0 167 -49 284 -164 393 -114 107 -227 159 -528 243 -284
78 -383 127 -435 216 -24 41 -28 59 -28 118 1 160 117 256 330 271 96 7 202
-13 285 -53 70 -34 155 -120 198 -200 17 -33 38 -63 45 -66 18 -6 245 67 264
85 15 15 12 25 -37 124 -44 92 -64 119 -134 188 -113 113 -246 179 -416 206
-63 9 -258 12 -310 3z"/>
<path d="M14598 5845 c-233 -38 -420 -135 -574 -296 -76 -81 -115 -137 -164
-241 -75 -157 -110 -324 -110 -516 0 -318 111 -597 314 -789 125 -120 259
-193 435 -241 87 -23 113 -26 286 -26 175 0 198 2 290 27 329 89 563 300 682
617 64 168 88 411 60 595 -71 459 -351 764 -792 861 -99 22 -320 27 -427 9z
m377 -310 c199 -52 344 -176 435 -370 57 -121 75 -214 74 -380 -2 -166 -22
-254 -85 -385 -34 -69 -58 -101 -128 -170 -96 -95 -182 -144 -305 -175 -97
-24 -268 -22 -369 4 -286 74 -478 318 -506 641 -22 268 42 486 191 646 105
111 234 180 387 204 75 12 232 4 306 -15z"/>
<path d="M6635 5804 c-15 -15 -16 -82 -12 -743 4 -785 2 -757 59 -915 62 -170
206 -309 385 -371 354 -123 785 11 979 306 l29 43 7 -50 c3 -27 7 -99 7 -161
1 -147 -3 -143 155 -143 81 0 126 4 134 12 17 17 17 2009 0 2026 -17 17 -282
17 -296 -1 -7 -8 -12 -216 -14 -607 -4 -572 -5 -598 -26 -675 -64 -236 -232
-412 -448 -470 -87 -24 -252 -22 -333 4 -177 55 -274 194 -301 430 -5 47 -10
360 -10 698 0 595 -1 613 -19 623 -11 5 -78 10 -150 10 -106 0 -132 -3 -146
-16z"/>
<path d="M11420 3931 c-15 -28 -13 -264 2 -279 17 -17 1879 -17 1896 0 8 8 12
54 12 143 0 89 -4 135 -12 143 -9 9 -234 12 -950 12 -916 0 -938 0 -948 -19z"/>
</g>
</svg>
